<?xml version="1.0" encoding="UTF-8" standalone="no"?> <svg xmlns="http://www.w3.org/2000/svg" xmlns:xlink="http://www.w3.org/1999/xlink" viewBox="0 0 64 64"><defs><style>.cls-1{fill:url(#linear-gradient);}.cls-2{fill:url(#linear-gradient-2);}.cls-3{fill:url(#linear-gradient-3);}.cls-4{fill:url(#linear-gradient-4);}.cls-5{fill:url(#linear-gradient-5);}.cls-6{fill:url(#linear-gradient-6);}.cls-7{fill:url(#linear-gradient-7);}.cls-8{fill:url(#linear-gradient-8);}</style><linearGradient id="linear-gradient" x1="30" y1="10.02" x2="34" y2="10.02" gradientUnits="userSpaceOnUse"><stop offset="0" stop-color="#17a6d7"/><stop offset="1" stop-color="#9d31fe"/></linearGradient><linearGradient id="linear-gradient-2" x1="41.29" y1="16.45" x2="53.81" y2="16.45" xlink:href="#linear-gradient"/><linearGradient id="linear-gradient-3" x1="45.96" y1="32" x2="61.97" y2="32" xlink:href="#linear-gradient"/><linearGradient id="linear-gradient-4" x1="41.27" y1="47.54" x2="53.8" y2="47.54" xlink:href="#linear-gradient"/><linearGradient id="linear-gradient-5" y1="53.98" y2="53.98" xlink:href="#linear-gradient"/><linearGradient id="linear-gradient-6" x1="10.21" y1="47.54" x2="22.73" y2="47.54" xlink:href="#linear-gradient"/><linearGradient id="linear-gradient-7" x1="2" y1="32" x2="18.04" y2="32" xlink:href="#linear-gradient"/><linearGradient id="linear-gradient-8" x1="10.19" y1="16.45" x2="22.72" y2="16.45" xlink:href="#linear-gradient"/></defs><g id="Layer_29" data-name="Layer 29"><path class="cls-1" d="M32,2a2,2,0,0,0-2,2V16a2,2,0,0,0,4,0V4A2,2,0,0,0,32,2Z"/><path class="cls-2" d="M43.28,22.72a2,2,0,0,0,1.42-.59l8.51-8.51a2,2,0,0,0-2.83-2.83L41.87,19.3A2,2,0,0,0,43.28,22.72Z"/><path class="cls-3" d="M60,30H48a2,2,0,0,0,0,4H60A2,2,0,0,0,60,30Z"/><path class="cls-4" d="M44.7,41.87a2,2,0,0,0-2.83,2.83l8.51,8.51a2,2,0,0,0,2.83-2.83Z"/><path class="cls-5" d="M32,46a2,2,0,0,0-2,2V60a2,2,0,0,0,4,0V48A2,2,0,0,0,32,46Z"/><path class="cls-6" d="M19.3,41.87l-8.51,8.51a2,2,0,1,0,2.83,2.83l8.51-8.51A2,2,0,0,0,19.3,41.87Z"/><path class="cls-7" d="M18,32a2,2,0,0,0-2-2H4a2,2,0,0,0,0,4H16A2,2,0,0,0,18,32Z"/><path class="cls-8" d="M13.62,10.79a2,2,0,0,0-2.83,2.83l8.51,8.51a2,2,0,0,0,2.83-2.83Z"/></g></svg>